<?xml version="1.0" encoding="UTF-8" standalone="no"?>
<svg xmlns:dc="http://purl.org/dc/elements/1.1/"
  xmlns:cc="http://creativecommons.org/ns#"
  xmlns:rdf="http://www.w3.org/1999/02/22-rdf-syntax-ns#"
  xmlns:svg="http://www.w3.org/2000/svg"
  xmlns="http://www.w3.org/2000/svg"
  xmlns:sodipodi="http://sodipodi.sourceforge.net/DTD/sodipodi-0.dtd"
  xmlns:inkscape="http://www.inkscape.org/namespaces/inkscape" width="16" height="16" fill="currentColor" class="bi bi-lightning" viewBox="0 0 16 16" version="1.1" id="svg4" sodipodi:docname="ray.svg" inkscape:version="0.92.5 (2060ec1f9f, 2020-04-08)">
  <metadata id="metadata10">
    <rdf:RDF>
      <cc:Work rdf:about="">
        <dc:format>image/svg+xml</dc:format>
        <dc:type rdf:resource="http://purl.org/dc/dcmitype/StillImage" />
      </cc:Work>
    </rdf:RDF>
  </metadata>
  <defs id="defs8" />
  <sodipodi:namedview pagecolor="#ffffff" bordercolor="#666666" borderopacity="1" objecttolerance="10" gridtolerance="10" guidetolerance="10" inkscape:pageopacity="0" inkscape:pageshadow="2" inkscape:window-width="1858" inkscape:window-height="1016" id="namedview6" showgrid="false" inkscape:zoom="14.75" inkscape:cx="8.1355932" inkscape:cy="7.6610169" inkscape:window-x="62" inkscape:window-y="27" inkscape:window-maximized="1" inkscape:current-layer="svg4" />
  <ellipse style="opacity:1;fill:#0000ff;stroke-width:1.00912499" id="path4528" cx="8.2033892" cy="8.0677967" rx="7.9661021" ry="7.9322033" />
  <path id="path4532" d="M 7.0242158,1.4360991 A 0.39492198,0.44280001 0 0 1 7.4033416,1.1181688 h 3.1593754 a 0.39492198,0.44280001 0 0 1 0.374387,0.5827248 L 9.5311811,6.4317685 h 3.0061459 a 0.39492198,0.44280001 0 0 1 0.311988,0.714679 L 7.3204074,15.11685 A 0.39492198,0.44280001 0 0 1 6.6308733,14.714787 L 8.0533826,9.5313687 H 5.4287304 A 0.39492198,0.44280001 0 0 1 5.0496062,8.9636996 Z M 7.6987429,2.0037688 5.9563467,8.6457693 h 2.6317604 a 0.39492198,0.44280001 0 0 1 0.3775457,0.572983 L 8.0194195,12.666394 11.730108,7.317369 H 8.9830292 A 0.39492198,0.44280001 0 0 1 8.6086437,6.7346434 L 10.014566,2.0037688 Z" inkscape:connector-curvature="0" style="stroke-width:0.83635271" />
  <path inkscape:connector-curvature="0" id="path4534" d="m 6.7647357,15.124793 c -0.064036,-0.07643 -0.1164105,-0.191257 -0.1163843,-0.255173 2.63e-5,-0.06391 0.3225527,-1.291508 0.716726,-2.727981 L 8.0817559,9.5298672 6.6770047,9.4998463 C 5.2200723,9.4687108 5.1406571,9.4541452 5.0701516,9.2050731 5.0289995,9.0596891 7.0412302,1.4177288 7.1591277,1.2716596 7.2494939,1.1597028 7.3347318,1.1541938 8.9766398,1.1541938 H 10.69934 l 0.116434,0.1389612 c 0.06404,0.076428 0.116431,0.178137 0.116431,0.2260185 0,0.047881 -0.313262,1.1399918 -0.696135,2.4269118 -0.3828733,1.2869199 -0.6961335,2.3740166 -0.6961335,2.4157714 0,0.059388 0.3257753,0.075915 1.4958795,0.075915 0.847224,0 1.555726,0.025509 1.633894,0.058831 0.189605,0.080824 0.280064,0.3145049 0.198986,0.5140261 -0.07535,0.1854206 -5.4288229,7.9273282 -5.6135588,8.1180282 -0.1677259,0.173141 -0.3432506,0.171755 -0.4904015,-0.0039 z M 9.9632648,9.9201326 C 10.93673,8.5166818 11.733703,7.348139 11.734318,7.3233732 c 6.15e-4,-0.024769 -0.649499,-0.045026 -1.444699,-0.045026 -1.3744185,0 -1.4511056,-0.00589 -1.5529138,-0.1200823 -0.058906,-0.066044 -0.1071026,-0.1812621 -0.1071026,-0.2560387 0,-0.074779 0.3132601,-1.1888913 0.6961342,-2.4758115 0.3828741,-1.2869201 0.6961342,-2.360508 0.6961342,-2.3857511 0,-0.025243 -0.5285089,-0.045896 -1.1744643,-0.045896 -1.0720402,0 -1.1769365,0.00916 -1.2028091,0.1050707 -0.2681317,0.9939015 -1.6924318,6.4709637 -1.6924318,6.508143 0,0.02821 0.6112222,0.051296 1.3582708,0.051296 1.2930451,0 1.3650481,0.006 1.4993655,0.1244391 0.0776,0.068445 0.1410931,0.1827284 0.1410931,0.2539724 0,0.098401 -0.762273,2.9730342 -0.9472998,3.5723862 -0.06466,0.209444 0.2118555,-0.170111 1.959665,-2.6899432 z" style="fill:#ffffff;stroke-width:0.05670188" />
  <path inkscape:connector-curvature="0" id="path4536" d="m 6.7904749,15.093914 c -0.048744,-0.06038 -0.088627,-0.171636 -0.088627,-0.247216 0,-0.127347 0.3691987,-1.535333 1.0950353,-4.176056 C 7.9602631,10.076238 8.0939768,9.5696445 8.094026,9.5448776 8.0940752,9.5201085 7.8109769,9.4976974 7.4649177,9.4950715 7.1188584,9.4924992 6.4808027,9.4717922 6.0470158,9.4491775 4.9613163,9.3925763 5.0081697,9.4766474 5.3317113,8.1657495 6.0383019,5.3028452 7.0998127,1.4083527 7.2073452,1.2843746 7.2608473,1.222692 7.6581716,1.1965414 8.9449236,1.1700135 L 10.61314,1.1356209 10.745895,1.275458 c 0.07302,0.076911 0.132756,0.1924181 0.132756,0.2566835 0,0.064265 -0.302995,1.1561232 -0.67332,2.4263506 -0.3703257,1.2702271 -0.6616205,2.3436852 -0.6473234,2.3854625 0.019624,0.057341 0.3979883,0.086515 1.5434884,0.1190222 1.644576,0.046666 1.758459,0.070588 1.758459,0.3693495 0,0.1690662 -0.134881,0.3759388 -2.189399,3.3579967 -1.840879,2.671968 -3.2709205,4.714157 -3.4160292,4.878306 -0.1444884,0.163448 -0.3437789,0.174311 -0.4640563,0.02529 z M 9.0545487,11.271048 C 10.538055,9.1507837 11.735436,7.3926751 11.735436,7.3347138 c 0,-0.032711 -0.387706,-0.059045 -0.923716,-0.062732 C 10.303675,7.268445 9.6400995,7.2482204 9.3371056,7.226956 8.7572069,7.1862495 8.6856589,7.1477615 8.6839765,6.8755559 8.6835248,6.8026206 8.9843681,5.7042494 9.3525152,4.4347326 9.7206633,3.1652156 10.021875,2.0963593 10.021875,2.0594964 c 0,-0.047811 -0.3409198,-0.062392 -1.1892948,-0.050865 L 7.643286,2.0247897 7.5449126,2.3850339 C 7.2998685,3.2823899 6.0035917,8.2959569 5.9746048,8.458466 l -0.032412,0.1816935 1.3484115,0.03613 c 1.4630846,0.039206 1.606746,0.072196 1.606746,0.3690182 0,0.1379147 -0.4253662,1.8129703 -0.7521643,2.9619613 -0.086986,0.305852 -0.1581643,0.586977 -0.1581643,0.624723 0,0.129496 0.2286796,-0.162037 1.0675269,-1.360938 z" style="fill:#ffff00;stroke-width:0.05670188" />
  <path inkscape:connector-curvature="0" id="path4538" d="M 8.1477698,12.349638 C 8.1478256,12.317795 8.3405557,11.589264 8.576059,10.730682 9.0085912,9.1537826 9.0311964,9.0474557 8.9711857,8.8721109 8.8889143,8.6317363 8.6921862,8.5992375 7.3193014,8.5992375 H 6.0036781 L 6.0341101,8.4641454 C 6.0508466,8.3898489 6.4333706,6.9241026 6.8841631,5.2069393 L 7.7037835,2.0848236 8.8360544,2.0686193 c 0.6227484,-0.00892 1.1322707,-0.00852 1.1322707,8.659e-4 0,0.00939 -0.3132601,1.0700048 -0.6961341,2.3569248 -0.382873,1.2869196 -0.6961331,2.4125839 -0.6961331,2.5014749 0,0.1030848 0.051095,0.2066861 0.141093,0.2860585 0.1346325,0.1187404 0.2057057,0.1244391 1.5520651,0.1244391 h 1.410972 L 9.9864519,9.785041 c -1.7997145,2.599748 -1.8388396,2.65432 -1.8386821,2.564597 z" style="fill:#ffffff;stroke-width:0.05670188" />
  <path style="opacity:1;fill:#00ffff;stroke-width:0.07340899" d="m 8.2710664,12.070653 c 0,-0.04816 0.166864,-0.703147 0.3708097,-1.455536 0.2039456,-0.7523905 0.3708095,-1.4665058 0.3708095,-1.5869235 0,-0.3850833 -0.1124637,-0.4160666 -1.6056248,-0.4423319 L 6.0463387,8.5619285 6.0948636,8.367873 C 6.1215545,8.2611441 6.4985839,6.8168229 6.9327154,5.1582747 L 7.7220471,2.1427304 8.81234,2.1226215 c 0.5996608,-0.01106 1.0902927,-0.0035 1.0902927,0.016791 0,0.020294 -0.2847982,1.0056411 -0.6328866,2.1896592 -0.3480873,1.1840178 -0.6518481,2.2883044 -0.6750232,2.4539709 -0.072755,0.5201052 0.00831,0.5485216 1.6310481,0.571653 l 1.390541,0.019817 -1.6310207,2.3510881 C 9.0882307,11.018698 8.3355512,12.095029 8.3126714,12.117447 c -0.022884,0.02242 -0.0416,0.0014 -0.0416,-0.04679 z" id="path4602" inkscape:connector-curvature="0" />
</svg>
